<?xml version="1.0" standalone="no"?>
<!DOCTYPE svg PUBLIC "-//W3C//DTD SVG 20010904//EN"
 "http://www.w3.org/TR/2001/REC-SVG-20010904/DTD/svg10.dtd">
<svg version="1.0" xmlns="http://www.w3.org/2000/svg"
 width="132.000000pt" height="132.000000pt" viewBox="0 0 132.000000 132.000000"
 preserveAspectRatio="xMidYMid meet">
<metadata>
Created by potrace 1.14, written by Peter Selinger 2001-2017
</metadata>
<g transform="translate(0.000000,132.000000) scale(0.100000,-0.100000)"
fill="#000000" stroke="none">
<path d="M0 660 l0 -660 660 0 660 0 0 660 0 660 -660 0 -660 0 0 -660z m659
380 c41 -6 78 -13 82 -17 4 -5 11 -25 15 -47 6 -36 6 -38 -14 -27 -31 16 -72
14 -79 -5 -9 -23 9 -47 40 -55 23 -6 28 -4 33 17 7 28 13 29 38 11 23 -16 13
-57 -13 -57 -9 0 -25 -13 -34 -29 -10 -17 -26 -33 -37 -36 -23 -7 -28 -53 -8
-73 15 -15 -9 -25 -49 -20 -26 3 -28 5 -25 46 2 25 -1 42 -7 42 -6 0 -26 14
-44 30 -19 17 -41 30 -50 30 -14 0 -27 20 -27 41 0 5 7 9 15 9 15 0 19 12 15
40 -3 20 22 93 35 102 13 10 24 9 114 -2z m129 -489 c1 -1 -2 -10 -8 -22 -7
-12 -18 -18 -26 -15 -8 3 -14 1 -14 -4 0 -6 -8 -10 -17 -9 -11 0 -13 3 -5 6 6
2 12 10 12 17 0 25 23 36 58 27z"/>
<path d="M538 950 c-11 -7 -15 -17 -11 -27 6 -15 7 -14 15 3 5 12 6 7 2 -14
-6 -33 -5 -33 27 -30 39 4 59 30 43 56 -13 20 -52 26 -76 12z"/>
</g>
</svg>
